<svg width="170" height="167" viewBox="0 0 170 167" fill="none" xmlns="http://www.w3.org/2000/svg">
<g id="noto-v1:t-shirt" clip-path="url(#clip0_7_64)" filter="url(#filter0_d_7_64)">
<path id="Vector" d="M154.428 35.6137C151.844 32.6469 145.397 27.8031 141.375 24.4246C137.243 20.9613 128.383 14.3254 125.69 13.2477C114.733 8.86406 109.797 7.3625 99.2306 4.48047C99.2306 4.48047 89.0784 6.95078 78 6.95078C66.9216 6.95078 56.7694 4.48047 56.7694 4.48047C46.1906 7.3625 41.2669 8.87617 30.3103 13.2477C27.6047 14.3254 18.7444 20.9613 14.625 24.4246C10.6031 27.8031 4.14374 32.6469 1.57218 35.6137C1.31624 35.8922 1.18218 37.0184 1.19437 38.1445C1.36499 44.5625 4.77749 48.0984 9.14062 54.7949C13.8572 62.0363 17.2209 65.6207 20.8284 68.3816C21.4622 68.9145 23.0831 68.5633 24.2287 67.6672C28.0922 64.6277 29.5425 62.6902 32.0653 61.4672C32.0775 61.4672 34.0884 60.4984 34.7466 61.2613C35.6362 62.3027 35.1487 65.6086 34.0397 78.723C34.0397 78.723 33.2719 96.1242 32.7234 101.828C32.1019 108.221 32.1262 114.676 31.7484 121.142C31.4316 126.652 31.2487 132.283 31.0903 137.429C31.0903 137.914 31.5778 138.628 31.7241 138.895C35.2462 145.288 42.4003 147.407 49.6031 148.739C58.9144 150.459 68.4694 151.319 78.0244 151.319C87.5794 151.319 97.1222 150.459 106.446 148.739C113.636 147.407 120.79 145.3 124.325 138.895C124.471 138.628 124.958 137.914 124.958 137.429C124.8 132.283 124.617 126.652 124.3 121.142C123.935 114.676 123.959 108.209 123.325 101.828C122.777 96.1242 122.009 78.723 122.009 78.723C120.888 65.6086 120.412 62.3027 121.302 61.2613C121.948 60.5105 123.971 61.4672 123.983 61.4672C126.506 62.6902 127.944 64.6277 131.82 67.6672C132.966 68.5633 134.587 68.9266 135.22 68.3816C138.828 65.6207 142.179 62.0363 146.908 54.7949C151.271 48.0984 154.684 44.5625 154.854 38.1445C154.83 37.0184 154.696 35.8922 154.428 35.6137Z" fill="#F4F916"/>
<path id="Vector_2" d="M57.5859 7.64102C71.3578 11.0801 85.4831 11.1164 99.255 7.7379C98.9503 10.293 98.2069 12.7391 97.11 14.7371C95.4525 17.7887 93.0759 19.7504 90.6506 21.1914C83.7525 25.2844 76.0622 25.6961 68.8106 23.4801C66.9581 22.9109 65.1056 22.1723 63.4116 20.9129C60.7181 18.9149 58.4513 15.609 57.0253 11.6008C56.8059 10.9711 56.5988 10.3051 56.5988 9.59063C56.5988 8.87618 56.8913 8.1254 57.3422 7.98008" fill="#A0BA7B"/>
<path id="Vector_3" d="M56.7328 3.57226C56.8059 3.66913 57.1228 4.88007 57.2081 5.00117C57.7322 5.71562 57.1594 7.83476 57.9394 8.77929C59.4262 10.5473 69.5175 12.3394 78 12.3394V6.95077C71.76 6.95077 68.5547 6.44218 65.3615 5.8246C61.949 5.1707 57.3544 3.54804 56.7328 3.57226ZM99.2672 3.57226C99.194 3.66913 98.8772 4.88007 98.7918 5.00117C98.2678 5.71562 98.8406 7.83476 98.0606 8.77929C96.5737 10.5473 86.4825 12.3394 78 12.3394V6.95077C84.24 6.95077 87.4453 6.44218 90.6384 5.8246C94.0509 5.1707 98.6456 3.54804 99.2672 3.57226Z" fill="#004D40"/>
<path id="Vector_4" d="M78 23.3105C64.8009 23.3105 58.0369 11.5766 57.6469 4.90429C57.5372 2.94257 56.4769 3.56015 54.0028 4.17772C51.9431 4.68632 51.7359 4.73475 52.004 6.70858C53.3203 16.4324 62.5584 29.2926 78 29.2926V23.3105ZM78 23.3105C91.199 23.3105 97.9631 11.5766 98.3531 4.90429C98.4628 2.94257 99.5231 3.56015 101.997 4.17772C104.057 4.68632 104.264 4.73475 103.996 6.70858C102.68 16.4203 93.4415 29.2805 78 29.2805V23.3105Z" fill="#00897B"/>
</g>
<defs>
<filter id="filter0_d_7_64" x="0" y="0" width="171" height="170" filterUnits="userSpaceOnUse" color-interpolation-filters="sRGB">
<feFlood flood-opacity="0" result="BackgroundImageFix"/>
<feColorMatrix in="SourceAlpha" type="matrix" values="0 0 0 0 0 0 0 0 0 0 0 0 0 0 0 0 0 0 127 0" result="hardAlpha"/>
<feOffset dx="10" dy="10"/>
<feGaussianBlur stdDeviation="2.5"/>
<feColorMatrix type="matrix" values="0 0 0 0 0 0 0 0 0 0 0 0 0 0 0 0 0 0 0.5 0"/>
<feBlend mode="normal" in2="BackgroundImageFix" result="effect1_dropShadow_7_64"/>
<feBlend mode="normal" in="SourceGraphic" in2="effect1_dropShadow_7_64" result="shape"/>
</filter>
<clipPath id="clip0_7_64">
<rect width="156" height="155" fill="white"/>
</clipPath>
</defs>
</svg>
