<svg width="169" height="167" viewBox="0 0 169 167" fill="none" xmlns="http://www.w3.org/2000/svg">
<g clip-path="url(#clip0_7_55)" filter="url(#filter0_d_7_55)">
<path d="M153.438 35.6137C150.871 32.6469 144.465 27.8031 140.469 24.4246C136.364 20.9613 127.56 14.3254 124.884 13.2477C113.998 8.86406 109.093 7.3625 98.5945 4.48047C98.5945 4.48047 88.5074 6.95078 77.5 6.95078C66.4926 6.95078 56.4055 4.48047 56.4055 4.48047C45.8945 7.3625 41.0024 8.87617 30.116 13.2477C27.4277 14.3254 18.6242 20.9613 14.5313 24.4246C10.5352 27.8031 4.1172 32.6469 1.56212 35.6137C1.30783 35.8922 1.17462 37.0184 1.18673 38.1445C1.35626 44.5625 4.74689 48.0984 9.08205 54.7949C13.7684 62.0363 17.1106 65.6207 20.6949 68.3816C21.3246 68.9145 22.9352 68.5633 24.0735 67.6672C27.9121 64.6277 29.3531 62.6902 31.8598 61.4672C31.8719 61.4672 33.8699 60.4984 34.5238 61.2613C35.4078 62.3027 34.9235 65.6086 33.8215 78.723C33.8215 78.723 33.0586 96.1242 32.5137 101.828C31.8961 108.221 31.9203 114.676 31.5449 121.142C31.2301 126.652 31.0485 132.283 30.891 137.429C30.891 137.914 31.3754 138.628 31.5207 138.895C35.0203 145.288 42.1285 147.407 49.2852 148.739C58.5367 150.459 68.0305 151.319 77.5242 151.319C87.018 151.319 96.4996 150.459 105.763 148.739C112.908 147.407 120.016 145.3 123.528 138.895C123.673 138.628 124.157 137.914 124.157 137.429C124 132.283 123.818 126.652 123.504 121.142C123.14 114.676 123.164 108.209 122.535 101.828C121.99 96.1242 121.227 78.723 121.227 78.723C120.113 65.6086 119.641 62.3027 120.525 61.2613C121.166 60.5105 123.177 61.4672 123.189 61.4672C125.695 62.6902 127.124 64.6277 130.975 67.6672C132.113 68.5633 133.724 68.9266 134.354 68.3816C137.938 65.6207 141.268 62.0363 145.966 54.7949C150.302 48.0984 153.692 44.5625 153.862 38.1445C153.838 37.0184 153.704 35.8922 153.438 35.6137Z" fill="#09244D"/>
<path d="M57.2168 7.64102C70.9004 11.0801 84.9352 11.1164 98.6188 7.7379C98.316 10.293 97.5774 12.7391 96.4875 14.7371C94.8407 17.7887 92.4793 19.7504 90.0696 21.1914C83.2156 25.2844 75.5746 25.6961 68.3696 23.4801C66.5289 22.9109 64.6883 22.1723 63.0051 20.9129C60.3289 18.9149 58.0766 15.609 56.6598 11.6008C56.4418 10.9711 56.236 10.3051 56.236 9.59063C56.236 8.87618 56.5266 8.1254 56.9746 7.98008" fill="#A0BA7B"/>
<path d="M56.3691 3.57226C56.4418 3.66913 56.7566 4.88007 56.8414 5.00117C57.3621 5.71562 56.793 7.83476 57.568 8.77929C59.0453 10.5473 69.0719 12.3394 77.5 12.3394V6.95077C71.3 6.95077 68.1152 6.44218 64.9426 5.8246C61.552 5.1707 56.9867 3.54804 56.3691 3.57226ZM98.6309 3.57226C98.5582 3.66913 98.2434 4.88007 98.1586 5.00117C97.6379 5.71562 98.207 7.83476 97.432 8.77929C95.9547 10.5473 85.9281 12.3394 77.5 12.3394V6.95077C83.7 6.95077 86.8848 6.44218 90.0574 5.8246C93.4481 5.1707 98.0133 3.54804 98.6309 3.57226Z" fill="#004D40"/>
<path d="M77.5 23.3106C64.3855 23.3106 57.6648 11.5766 57.2773 4.9043C57.1683 2.94258 56.1148 3.56016 53.6566 4.17774C51.6101 4.68633 51.4043 4.73477 51.6707 6.7086C52.9785 16.4324 62.1574 29.2926 77.5 29.2926V23.3106ZM77.5 23.3106C90.6144 23.3106 97.3351 11.5766 97.7226 4.9043C97.8316 2.94258 98.8851 3.56016 101.343 4.17774C103.39 4.68633 103.596 4.73477 103.329 6.7086C102.021 16.4203 92.8426 29.2805 77.5 29.2805V23.3106Z" fill="white"/>
</g>
<defs>
<filter id="filter0_d_7_55" x="0" y="0" width="170" height="170" filterUnits="userSpaceOnUse" color-interpolation-filters="sRGB">
<feFlood flood-opacity="0" result="BackgroundImageFix"/>
<feColorMatrix in="SourceAlpha" type="matrix" values="0 0 0 0 0 0 0 0 0 0 0 0 0 0 0 0 0 0 127 0" result="hardAlpha"/>
<feOffset dx="10" dy="10"/>
<feGaussianBlur stdDeviation="2.5"/>
<feColorMatrix type="matrix" values="0 0 0 0 0 0 0 0 0 0 0 0 0 0 0 0 0 0 0.5 0"/>
<feBlend mode="normal" in2="BackgroundImageFix" result="effect1_dropShadow_7_55"/>
<feBlend mode="normal" in="SourceGraphic" in2="effect1_dropShadow_7_55" result="shape"/>
</filter>
<clipPath id="clip0_7_55">
<rect width="155" height="155" fill="white"/>
</clipPath>
</defs>
</svg>
