<svg width="169" height="168" viewBox="0 0 169 168" fill="none" xmlns="http://www.w3.org/2000/svg">
<g clip-path="url(#clip0_7_73)" filter="url(#filter0_d_7_73)">
<path d="M153.438 35.8434C150.871 32.8575 144.465 27.9825 140.469 24.5822C136.364 21.0966 127.56 14.4178 124.884 13.3331C113.998 8.92124 109.093 7.40999 98.5945 4.50937C98.5945 4.50937 88.5074 6.99562 77.5 6.99562C66.4926 6.99562 56.4055 4.50937 56.4055 4.50937C45.8945 7.40999 41.0024 8.93343 30.116 13.3331C27.4277 14.4178 18.6242 21.0966 14.5313 24.5822C10.5352 27.9825 4.1172 32.8575 1.56212 35.8434C1.30783 36.1237 1.17462 37.2572 1.18673 38.3906C1.35626 44.85 4.74689 48.4087 9.08205 55.1484C13.7684 62.4366 17.1106 66.0441 20.6949 68.8228C21.3246 69.3591 22.9352 69.0056 24.0735 68.1037C27.9121 65.0447 29.3531 63.0947 31.8598 61.8637C31.8719 61.8637 33.8699 60.8887 34.5238 61.6566C35.4078 62.7047 34.9235 66.0319 33.8215 79.2309C33.8215 79.2309 33.0586 96.7444 32.5137 102.485C31.8961 108.92 31.9203 115.416 31.5449 121.924C31.2301 127.469 31.0485 133.136 30.891 138.316C30.891 138.803 31.3754 139.522 31.5207 139.791C35.0203 146.226 42.1285 148.358 49.2852 149.699C58.5367 151.43 68.0305 152.295 77.5242 152.295C87.018 152.295 96.4996 151.43 105.763 149.699C112.908 148.358 120.016 146.238 123.528 139.791C123.673 139.522 124.157 138.803 124.157 138.316C124 133.136 123.818 127.469 123.504 121.924C123.14 115.416 123.164 108.907 122.535 102.485C121.99 96.7444 121.227 79.2309 121.227 79.2309C120.113 66.0319 119.641 62.7047 120.525 61.6566C121.166 60.9009 123.177 61.8637 123.189 61.8637C125.695 63.0947 127.124 65.0447 130.975 68.1037C132.113 69.0056 133.724 69.3712 134.354 68.8228C137.938 66.0441 141.268 62.4366 145.966 55.1484C150.302 48.4087 153.692 44.85 153.862 38.3906C153.838 37.2572 153.704 36.1237 153.438 35.8434Z" fill="#CB1212"/>
<path d="M57.2168 7.69031C70.9004 11.1516 84.9352 11.1881 98.6188 7.78781C98.316 10.3594 97.5774 12.8212 96.4875 14.8322C94.8407 17.9034 92.4793 19.8778 90.0696 21.3281C83.2156 25.4475 75.5746 25.8619 68.3696 23.6316C66.5289 23.0587 64.6883 22.3153 63.0051 21.0478C60.3289 19.0369 58.0766 15.7097 56.6598 11.6756C56.4418 11.0419 56.236 10.3716 56.236 9.6525C56.236 8.93343 56.5266 8.17781 56.9746 8.03156" fill="#A0BA7B"/>
<path d="M56.3691 3.59532C56.4418 3.69282 56.7566 4.91157 56.8414 5.03344C57.3621 5.7525 56.793 7.88532 57.568 8.83594C59.0453 10.6153 69.0719 12.4191 77.5 12.4191V6.99563C71.3 6.99563 68.1152 6.48375 64.9426 5.86219C61.552 5.20407 56.9867 3.57094 56.3691 3.59532ZM98.6309 3.59532C98.5582 3.69282 98.2434 4.91157 98.1586 5.03344C97.6379 5.7525 98.207 7.88532 97.432 8.83594C95.9547 10.6153 85.9281 12.4191 77.5 12.4191V6.99563C83.7 6.99563 86.8848 6.48375 90.0574 5.86219C93.4481 5.20407 98.0133 3.57094 98.6309 3.59532Z" fill="#004D40"/>
<path d="M77.5 23.4609C64.3855 23.4609 57.6648 11.6513 57.2773 4.93594C57.1683 2.96157 56.1148 3.58313 53.6566 4.20469C51.6101 4.71657 51.4043 4.76532 51.6707 6.75188C52.9785 16.5384 62.1574 29.4816 77.5 29.4816V23.4609ZM77.5 23.4609C90.6144 23.4609 97.3351 11.6513 97.7226 4.93594C97.8316 2.96157 98.8851 3.58313 101.343 4.20469C103.39 4.71657 103.596 4.76532 103.329 6.75188C102.021 16.5263 92.8426 29.4694 77.5 29.4694V23.4609Z" fill="#00897B"/>
</g>
<defs>
<filter id="filter0_d_7_73" x="0" y="0" width="170" height="171" filterUnits="userSpaceOnUse" color-interpolation-filters="sRGB">
<feFlood flood-opacity="0" result="BackgroundImageFix"/>
<feColorMatrix in="SourceAlpha" type="matrix" values="0 0 0 0 0 0 0 0 0 0 0 0 0 0 0 0 0 0 127 0" result="hardAlpha"/>
<feOffset dx="10" dy="10"/>
<feGaussianBlur stdDeviation="2.5"/>
<feColorMatrix type="matrix" values="0 0 0 0 0 0 0 0 0 0 0 0 0 0 0 0 0 0 0.5 0"/>
<feBlend mode="normal" in2="BackgroundImageFix" result="effect1_dropShadow_7_73"/>
<feBlend mode="normal" in="SourceGraphic" in2="effect1_dropShadow_7_73" result="shape"/>
</filter>
<clipPath id="clip0_7_73">
<rect width="155" height="156" fill="white"/>
</clipPath>
</defs>
</svg>
