<svg width="40" height="40" viewBox="0 0 40 40" fill="none" xmlns="http://www.w3.org/2000/svg">
<path d="M20 3.33333C15.5972 3.38948 11.3905 5.16345 8.27701 8.27697C5.1635 11.3905 3.38952 15.5972 3.33337 20C3.35396 22.5649 3.96624 25.0904 5.12256 27.3799C6.27888 29.6694 7.94802 31.6611 10 33.2V33.3333H10.1667C12.9887 35.4958 16.4448 36.6677 20 36.6677C23.5553 36.6677 27.0114 35.4958 29.8334 33.3333H30V33.2C32.0521 31.6611 33.7212 29.6694 34.8775 27.3799C36.0338 25.0904 36.6461 22.5649 36.6667 20C36.6106 15.5972 34.8366 11.3905 31.7231 8.27697C28.6095 5.16345 24.4029 3.38948 20 3.33333ZM13.45 31.55C13.6933 30.4357 14.3103 29.4381 15.1985 28.7227C16.0867 28.0073 17.1929 27.617 18.3334 27.6167H21.6667C22.8072 27.617 23.9133 28.0073 24.8016 28.7227C25.6898 29.4381 26.3067 30.4357 26.55 31.55C24.5648 32.718 22.3034 33.3339 20 33.3339C17.6967 33.3339 15.4353 32.718 13.45 31.55ZM29.35 29.4C28.7161 27.8849 27.6486 26.5909 26.2816 25.6806C24.9146 24.7703 23.3091 24.2841 21.6667 24.2833H18.3334C16.691 24.2841 15.0855 24.7703 13.7185 25.6806C12.3515 26.5909 11.284 27.8849 10.65 29.4C9.40115 28.1716 8.40654 26.7092 7.72306 25.0963C7.03958 23.4834 6.68063 21.7517 6.66671 20C6.70994 16.4772 8.12857 13.1109 10.6197 10.6197C13.1109 8.12853 16.4773 6.70989 20 6.66666C23.5228 6.70989 26.8892 8.12853 29.3803 10.6197C31.8715 13.1109 33.2901 16.4772 33.3334 20C33.3195 21.7517 32.9605 23.4834 32.277 25.0963C31.5935 26.7092 30.5989 28.1716 29.35 29.4Z" fill="#F68A1F"/>
<path d="M20 10C19.1189 9.97947 18.2428 10.1379 17.4247 10.4656C16.6066 10.7934 15.8634 11.2837 15.2402 11.9069C14.617 12.5301 14.1267 13.2732 13.799 14.0914C13.4712 14.9095 13.3128 15.7856 13.3333 16.6667C13.3128 17.5478 13.4712 18.4239 13.799 19.242C14.1267 20.0601 14.617 20.8032 15.2402 21.4264C15.8634 22.0496 16.6066 22.5399 17.4247 22.8677C18.2428 23.1954 19.1189 23.3539 20 23.3333C20.8811 23.3539 21.7572 23.1954 22.5753 22.8677C23.3934 22.5399 24.1365 22.0496 24.7597 21.4264C25.3829 20.8032 25.8732 20.0601 26.201 19.242C26.5288 18.4239 26.6872 17.5478 26.6666 16.6667C26.6872 15.7856 26.5288 14.9095 26.201 14.0914C25.8732 13.2732 25.3829 12.5301 24.7597 11.9069C24.1365 11.2837 23.3934 10.7934 22.5753 10.4656C21.7572 10.1379 20.8811 9.97947 20 10ZM20 20C19.5566 20.0214 19.1136 19.9499 18.6994 19.79C18.2853 19.63 17.9092 19.3852 17.5953 19.0713C17.2814 18.7574 17.0366 18.3813 16.8767 17.9672C16.7168 17.5531 16.6452 17.1101 16.6666 16.6667C16.6452 16.2232 16.7168 15.7802 16.8767 15.3661C17.0366 14.952 17.2814 14.5759 17.5953 14.262C17.9092 13.9481 18.2853 13.7033 18.6994 13.5434C19.1136 13.3834 19.5566 13.3119 20 13.3333C20.4434 13.3119 20.8864 13.3834 21.3005 13.5434C21.7146 13.7033 22.0907 13.9481 22.4046 14.262C22.7186 14.5759 22.9633 14.952 23.1233 15.3661C23.2832 15.7802 23.3547 16.2232 23.3333 16.6667C23.3547 17.1101 23.2832 17.5531 23.1233 17.9672C22.9633 18.3813 22.7186 18.7574 22.4046 19.0713C22.0907 19.3852 21.7146 19.63 21.3005 19.79C20.8864 19.9499 20.4434 20.0214 20 20Z" fill="#F68A1F"/>
</svg>
