<svg width="50" height="50" viewBox="0 0 50 50" fill="none" xmlns="http://www.w3.org/2000/svg">
<path d="M4.17499 45.8334L6.99165 35.4834C5.13569 32.3019 4.1606 28.6834 4.16665 25.0001C4.16665 13.4938 13.4937 4.16675 25 4.16675C36.5062 4.16675 45.8333 13.4938 45.8333 25.0001C45.8333 36.5063 36.5062 45.8334 25 45.8334C21.3183 45.8394 17.7014 44.865 14.5208 43.0105L4.17499 45.8334ZM17.4812 15.2251C17.2122 15.2418 16.9493 15.3126 16.7083 15.4334C16.4823 15.5614 16.276 15.7214 16.0958 15.9084C15.8458 16.1438 15.7042 16.348 15.5521 16.5459C14.7821 17.548 14.3679 18.778 14.375 20.0417C14.3792 21.0626 14.6458 22.0563 15.0625 22.9855C15.9146 24.8647 17.3167 26.8542 19.1687 28.698C19.6146 29.1417 20.05 29.5876 20.5187 30.0022C22.8175 32.026 25.5568 33.4856 28.5187 34.2647L29.7042 34.4459C30.0896 34.4667 30.475 34.4376 30.8625 34.4188C31.4692 34.3875 32.0617 34.2232 32.5979 33.9376C32.8707 33.7971 33.137 33.6441 33.3958 33.4792C33.3958 33.4792 33.4854 33.4209 33.6562 33.2917C33.9375 33.0834 34.1104 32.9355 34.3437 32.6917C34.5167 32.5126 34.6667 32.3022 34.7812 32.0626C34.9437 31.723 35.1062 31.0751 35.1729 30.5355C35.2229 30.123 35.2083 29.898 35.2021 29.7584C35.1937 29.5355 35.0083 29.3042 34.8062 29.2063L33.5937 28.6626C33.5937 28.6626 31.7812 27.873 30.675 27.3688C30.5583 27.318 30.4333 27.289 30.3062 27.2834C30.1637 27.2688 30.0197 27.2848 29.8838 27.3305C29.748 27.3761 29.6235 27.4503 29.5187 27.548V27.5438C29.5083 27.5438 29.3687 27.6626 27.8625 29.4876C27.776 29.6038 27.6569 29.6915 27.5204 29.7398C27.3839 29.788 27.2361 29.7945 27.0958 29.7584C26.9601 29.7221 26.8271 29.6762 26.6979 29.6209C26.4396 29.5126 26.35 29.4709 26.1729 29.3938L26.1625 29.3897C24.9706 28.8693 23.8671 28.1664 22.8917 27.3063C22.6292 27.0772 22.3854 26.8272 22.1354 26.5855C21.3158 25.8006 20.6015 24.9126 20.0104 23.9438L19.8875 23.7459C19.7992 23.6129 19.7278 23.4695 19.675 23.3188C19.5958 23.0126 19.8021 22.7667 19.8021 22.7667C19.8021 22.7667 20.3083 22.2126 20.5437 21.9126C20.7398 21.6632 20.9226 21.4039 21.0917 21.1355C21.3375 20.7397 21.4146 20.3334 21.2854 20.0188C20.7021 18.5938 20.0979 17.1751 19.4771 15.7667C19.3542 15.4876 18.9896 15.2876 18.6583 15.248C18.5458 15.2355 18.4333 15.223 18.3208 15.2147C18.041 15.2008 17.7607 15.2035 17.4812 15.223V15.2251Z" fill="white"/>
</svg>
